<svg xmlns:dc="http://purl.org/dc/elements/1.1/" xmlns:cc="http://creativecommons.org/ns#" xmlns:rdf="http://www.w3.org/1999/02/22-rdf-syntax-ns#" xmlns:svg="http://www.w3.org/2000/svg" xmlns="http://www.w3.org/2000/svg" xmlns:sodipodi="http://sodipodi.sourceforge.net/DTD/sodipodi-0.dtd" xmlns:inkscape="http://www.inkscape.org/namespaces/inkscape" width="93.5550935551px" height="100px" viewBox="0 0 450 481" version="1.1" id="svg2" inkscape:version="0.48.2 r9819" sodipodi:docname="crash dummy.svg">
  <metadata id="metadata12">
    <rdf:RDF>
      <cc:Work rdf:about="">
        <dc:format>image/svg+xml</dc:format>
        <dc:type rdf:resource="http://purl.org/dc/dcmitype/StillImage"/>
      </cc:Work>
    </rdf:RDF>
  </metadata>
  <defs id="defs10"/>
  <sodipodi:namedview pagecolor="#ffffff" bordercolor="#666666" borderopacity="1" objecttolerance="10" gridtolerance="10" guidetolerance="10" inkscape:pageopacity="0" inkscape:pageshadow="2" inkscape:window-width="1366" inkscape:window-height="706" id="namedview8" showgrid="true" showguides="true" inkscape:guide-bbox="true" inkscape:snap-grids="false" inkscape:zoom="0.55510087" inkscape:cx="284.26239" inkscape:cy="176.86724" inkscape:window-x="-8" inkscape:window-y="-8" inkscape:window-maximized="1" inkscape:current-layer="svg2">
    <inkscape:grid type="xygrid" id="grid2991"/>
  </sodipodi:namedview>
  <path style="fill:#000000;stroke:#000000;stroke-width:0.09375" d="m 289,20.85 c -30.28054,-0.04824 -60.78125,2.36875 -89.3,12.85 -13,4.2 -24.8,11.3 -36.1,18.9 -25.6,20 -49.2,44.9 -59.5,76.5 -5.8,15.1 -0.5,32.2 -6.7,47.2 -8.2,22.8 -25.5,40.4 -39.4,59.7 -2,2.4 -4.6,6.8 -1.4,9.4 7.9,7.2 18.3,11.1 26.7,17.7 -3.2,8.9 -6.6,17.7 -11.2,26 -1.2,2.3 -3,5.4 -1,7.8 3.4,4.8 7.7,8.9 11.5,13.5 -2.9,1.2 -5.8,2.5 -8.8,3.8 2.6,5.4 5.7,10.5 7.7,16.2 4.2,14.7 -2.4,29.7 -3.1,44.5 0.6,12.4 11.7,27.3 25.5,23.1 32.1,-8.2 62,-23.1 91.7,-37.4 9.6,-5.7 21.3,-10 26.5,-20.5 9.7,-19.2 10.6,-41.1 12.7,-62.1 1.4,-10 -0.5,-22.1 7.2,-30 4.2,-5.6 11.5,-7.7 18.1,-8.7 31.5,-2.6 63.5,-1.1 94.8,-6.2 2.8,-16.3 3.9,-32.8 5.9,-49.2 4.1,-42.9 8,-86 5.6,-129 -0.7,-7.6 -1.1,-15.4 -3.8,-22.6 -0.6,-1.8 -2,-3.3 -3.9,-3.9 C 343,23.1 326.2,22.5 309.9,21.2 302.9625,20.99375 295.98782,20.861133 289,20.85 z M 276,120.9 c 26.63802,0 48.225,21.61198 48.225,48.25 0,26.63802 -21.58698,48.25 -48.225,48.25 -26.63801,0 -48.25,-21.61198 -48.25,-48.25 0,-26.63802 21.61199,-48.25 48.25,-48.25 z m 0,0.825 c -26.15554,0 -47.344,21.13853 -47.425,47.275 L 276,169 z m 0,47.275 0,47.6 c 26.20567,0 47.45,-21.24434 47.45,-47.45 0,-0.0501 1.5e-4,-0.0999 0,-0.15 z m 53.6,70.7 c -22.1,0.3 -44.1,1.6 -66.1,2.7 -10.2,-0.2 -21.3,5.9 -23.5,16.5 -4,28.2 -2.1,58.3 -15.8,84.2 -4.6,9.2 -14.08559,13.1357 -22,17.9714 -3.3293,2.0342 9.8,7.9286 9.8,7.9286 0,0 -15.4645,2.06125 -16,8 -0.5987,6.63973 16,12 16,12 0,0 -15.52741,5.35011 -16,12 -0.53468,7.5235 16,16 16,16 0,0 -16,2.03715 -16,8 0,5.96285 16,8 16,8 l -16,16 128,0 -16,-16 c 0,0 16.17421,-2.83239 15.9,-8.9 -0.26205,-5.79849 -15.9,-7.1 -15.9,-7.1 0,0 16.53468,-8.4765 16,-16 -0.47259,-6.64989 -16,-12 -16,-12 0,0 16.5987,-5.36027 16,-12 -0.5355,-5.93875 -16,-8 -16,-8 0,0 15.88436,-8.45841 16,-16 0.11786,-7.6866 -15.8,-16.8 -15.8,-16.8 0,0 15.69563,-1.41321 15.8,-7.2 0.10752,-5.96188 -16,-8 -16,-8 0,0 15.06119,-8.51618 16,-16 1.08085,-8.61611 -9.7,-21.9 -13.3,-22.4 5,-6.1 12,-11.1 14.8,-18.7 1.5,-8 0.1,-16.7 4.1,-24.2 z" id="path4" inkscape:connector-curvature="0" sodipodi:nodetypes="scccccccccccccccccccccccccssssssccccccsccccccscscscsccccscscscscscsccc"/>
</svg>